<svg id="Layer_1" xmlns="http://www.w3.org/2000/svg" viewBox="0 0 100 100"><style>.st0{fill:none;stroke:#204056;stroke-miterlimit:10}.st1{fill:#204056}</style><path class="st0" d="M50.5 0v10M50.5 90v10M100 50.5H90M10 50.5H0M6.9 24.6l8.7 5M84.8 69.6l8.7 5M75.4 6.9l-5 8.7M30.4 84.9l-5 8.7M93.5 25.4l-8.7 5M15.6 70.4l-8.7 5M74.5 93.6l-5-8.7M29.5 15.6l-5-8.7"/><path class="st1" d="M41.5 48.5c1.1 0 1.9.4 2.5 1.2.1.1.3.2.4.1l1.8-1.6c.1-.1.1-.3 0-.4-1.1-1.3-2.7-2.2-4.8-2.2-2.8 0-4.9 1.4-5.7 3.8-.3.9-.4 2-.4 3.4 0 1.5.1 2.6.4 3.4.8 2.5 2.9 3.8 5.7 3.8 2.1 0 3.7-.8 4.8-2.1.1-.1.1-.3 0-.4L44.4 56c-.1-.1-.3-.1-.4 0-.7.8-1.4 1.2-2.5 1.2-1.2 0-2.2-.6-2.6-1.8-.2-.7-.3-1.5-.3-2.6s.1-1.9.3-2.6c.4-1.1 1.4-1.7 2.6-1.7zM70.9 63.5h-9.7c-.2 0-.3.1-.3.3v2.6c0 .2.1.3.3.3h9.7c.2 0 .3-.1.3-.3v-2.6c0-.2-.1-.3-.3-.3z"/><path class="st1" d="M58 33.4s-.1-.1-.2-.1H29.7h-.1c-.1 0-.2.1-.2.3v32.8c0 .1 0 .2.1.2h28.4c.1 0 .2 0 .2-.1 0 0 .1-.1.1-.2V33.6l-.2-.2zm-3.1 29.8c0 .1-.1.2-.2.3H32.9h-.1c-.1 0-.2-.1-.2-.3V36.8c0-.1.1-.2.2-.3h22.1c.1 0 .2.1.2.3v26.4z"/><path class="st0" d="M43.9.4l.5 4M56.5 95.6l.5 4M37.5 1.7l1 3.9M62.4 94.4l1 3.9M31.3 3.8l1.5 3.7M68 92.5l1.6 3.7"/><g><path class="st0" d="M20 10.3l2.4 3.2M78.4 86.5l2.5 3.2"/></g><g><path class="st0" d="M15.1 14.6l2.8 2.9M83 82.5l2.8 2.9"/></g><g><path class="st0" d="M10.8 19.6L14 22M86.9 78l3.2 2.4"/></g><g><path class="st0" d="M4.3 30.9l3.6 1.5M92.9 67.6l3.7 1.5"/></g><g><path class="st0" d="M2.1 37.1l3.9 1M94.9 61.9l3.8 1"/></g><g><path class="st0" d="M.9 43.5l3.9.5M96.1 56l3.9.5"/></g><g><path class="st0" d="M.9 56.5l3.9-.5M96.1 44l3.9-.5"/></g><g><path class="st0" d="M2.1 62.9l3.9-1M94.9 38.1l3.8-1"/></g><g><path class="st0" d="M4.3 69.1l3.6-1.5M92.9 32.4l3.7-1.5"/></g><g><path class="st0" d="M10.8 80.4L14 78M86.9 22l3.2-2.4"/></g><g><path class="st0" d="M15.1 85.4l2.8-2.9M83 17.5l2.8-2.9"/></g><g><path class="st0" d="M20 89.7l2.4-3.2M78.4 13.5l2.5-3.2"/></g><g><path class="st0" d="M31.3 96.2l1.5-3.7M68 7.5l1.6-3.7"/></g><g><path class="st0" d="M37.5 98.3l1-3.9M62.4 5.6l1-3.9"/></g><g><path class="st0" d="M43.9 99.6l.5-4M56.5 4.4l.5-4"/></g></svg>